<?xml version="1.0" standalone="no"?>
<!DOCTYPE svg PUBLIC "-//W3C//DTD SVG 20010904//EN"
 "http://www.w3.org/TR/2001/REC-SVG-20010904/DTD/svg10.dtd">
<svg version="1.0" xmlns="http://www.w3.org/2000/svg"
 width="512.000000pt" height="512.000000pt" viewBox="0 0 512.000000 512.000000"
 preserveAspectRatio="xMidYMid meet">

<g transform="translate(0.000000,512.000000) scale(0.100000,-0.100000)"
fill="#000000" stroke="none">
<path d="M1859 4831 c-29 -29 -29 -31 -29 -145 l0 -116 -301 0 c-332 0 -370
-5 -483 -62 -79 -40 -184 -145 -224 -223 -65 -130 -62 -78 -62 -1068 l0 -899
29 -29 c34 -34 83 -39 120 -13 48 34 51 59 51 414 l0 330 1900 0 1900 0 -2
-1152 -3 -1153 -28 -57 c-35 -72 -97 -134 -167 -167 l-55 -26 -1650 0 -1650 0
-50 24 c-71 35 -149 118 -174 186 -20 52 -21 76 -21 381 0 348 -3 374 -51 408
-37 26 -86 21 -120 -13 l-29 -29 0 -354 c0 -388 2 -402 62 -523 40 -79 145
-183 226 -224 129 -65 14 -61 1810 -61 1805 0 1689 -4 1817 63 74 40 171 134
213 208 18 32 41 92 52 135 20 75 20 114 20 1748 0 1841 3 1731 -63 1865 -65
133 -217 249 -365 280 -31 6 -169 11 -332 11 l-280 0 0 105 c0 144 -22 185
-100 185 -78 0 -100 -41 -100 -185 l0 -105 -845 0 -845 0 0 106 c0 58 -5 115
-11 127 -32 63 -111 77 -160 28z m-29 -594 l0 -134 -41 -19 c-54 -24 -121 -92
-150 -151 -31 -64 -38 -172 -14 -242 26 -80 83 -144 162 -183 59 -29 77 -33
143 -33 127 1 227 62 287 178 24 45 28 63 28 142 0 78 -4 97 -27 140 -30 58
-103 130 -154 151 l-34 14 0 135 0 135 845 0 845 0 0 -133 0 -133 -35 -17
c-53 -25 -124 -95 -153 -152 -23 -43 -27 -62 -27 -140 0 -75 4 -98 24 -139 98
-199 363 -244 518 -89 66 66 88 123 88 228 0 78 -4 97 -27 140 -32 62 -97 127
-149 150 l-39 18 0 134 0 134 293 -3 c291 -3 292 -3 347 -29 69 -33 133 -97
168 -169 l27 -55 3 -447 3 -448 -1901 0 -1900 0 0 439 c0 480 0 478 61 567 37
54 101 102 167 126 40 15 90 17 345 18 l297 0 0 -133z m167 -343 c56 -35 68
-131 23 -179 -54 -57 -129 -57 -179 1 -93 106 36 254 156 178z m1893 -3 c33
-24 50 -58 50 -104 0 -31 -7 -46 -33 -72 -59 -59 -116 -58 -175 1 -32 32 -34
38 -30 85 10 100 107 146 188 90z"/>
<path d="M1894 2472 c-12 -9 -27 -28 -34 -41 -26 -51 -9 -77 188 -273 l187
-188 -1004 0 -1003 0 -34 -34 c-37 -37 -43 -70 -20 -115 8 -15 26 -32 41 -39
19 -9 271 -12 1023 -12 l997 0 -187 -187 c-202 -203 -215 -222 -184 -281 20
-39 44 -52 93 -52 36 0 49 12 325 288 l288 287 0 45 0 45 -288 287 c-281 281
-288 288 -327 288 -23 0 -49 -8 -61 -18z"/>
</g>
</svg>
