<?xml version="1.0" standalone="no"?>
<!DOCTYPE svg PUBLIC "-//W3C//DTD SVG 20010904//EN"
 "http://www.w3.org/TR/2001/REC-SVG-20010904/DTD/svg10.dtd">
<svg version="1.0" xmlns="http://www.w3.org/2000/svg"
 width="512.000000pt" height="512.000000pt" viewBox="0 0 512.000000 512.000000"
 preserveAspectRatio="xMidYMid meet">

<g transform="translate(0.000000,512.000000) scale(0.100000,-0.100000)"
fill="#000000" stroke="none">
<path d="M526 5004 c-253 -61 -438 -309 -423 -569 7 -127 72 -286 212 -519 36
-60 64 -110 63 -111 -2 -1 -29 -14 -61 -30 -127 -63 -183 -141 -175 -246 10
-132 137 -230 359 -275 108 -22 282 -15 387 15 233 67 349 213 283 356 -24 53
-98 120 -170 154 l-58 27 68 115 c232 384 267 566 153 799 -69 141 -219 257
-372 289 -71 15 -194 13 -266 -5z m214 -104 c221 -35 381 -234 368 -458 -8
-133 -104 -330 -314 -642 -141 -211 -131 -198 -149 -174 -109 142 -313 481
-371 617 -54 126 -68 196 -54 279 32 187 171 333 354 373 77 17 87 17 166 5z
m-257 -1247 c17 -25 58 -82 90 -125 53 -73 60 -79 90 -76 28 3 42 17 118 123
48 65 92 121 98 123 21 7 138 -57 165 -89 50 -59 28 -124 -58 -174 -85 -49
-153 -67 -286 -72 -190 -8 -311 23 -395 100 -63 59 -68 92 -21 145 33 36 123
90 154 91 7 1 27 -20 45 -46z"/>
<path d="M615 4661 c-190 -49 -255 -277 -117 -411 98 -94 246 -94 340 0 46 46
64 85 70 155 5 69 -14 125 -62 182 -48 57 -158 93 -231 74z m142 -155 c65 -71
34 -181 -58 -206 -52 -14 -120 14 -143 59 -69 133 101 257 201 147z"/>
<path d="M3279 4005 c-270 -51 -536 -226 -675 -443 l-39 -62 -56 0 c-160 0
-290 -125 -290 -279 -1 -89 25 -156 81 -212 25 -25 63 -52 84 -60 l37 -13 -3
-871 c-4 -978 2 -906 -82 -1080 -107 -224 -310 -390 -558 -457 -109 -29 -298
-31 -403 -4 -312 81 -552 322 -625 629 -17 72 -20 118 -20 373 l0 291 43 17
c92 35 167 131 183 232 9 61 -12 145 -51 200 -37 52 -104 102 -147 111 l-28 6
0 306 c0 338 -3 354 -56 359 -62 6 -63 1 -66 -348 l-3 -313 -45 -15 c-61 -21
-141 -102 -163 -166 -9 -27 -17 -77 -17 -111 0 -117 85 -235 192 -267 l38 -11
0 -280 c0 -239 3 -293 20 -377 43 -213 145 -388 308 -533 416 -370 1065 -304
1404 143 62 81 140 240 169 345 23 79 23 87 28 945 l6 864 32 7 c45 9 116 53
149 91 97 116 90 284 -17 394 l-40 41 47 64 c227 309 620 450 988 354 332 -87
601 -371 670 -707 25 -123 24 -132 -27 -152 -64 -24 -122 -78 -154 -144 -23
-47 -28 -69 -27 -127 1 -120 53 -204 159 -256 l64 -31 3 -163 c3 -144 5 -165
22 -184 23 -25 44 -27 74 -5 21 15 22 21 22 183 l0 168 47 18 c57 22 116 74
150 133 40 68 44 180 11 253 -14 30 -42 71 -63 91 -33 33 -110 78 -134 78 -5
0 -12 26 -15 58 -52 433 -351 782 -771 899 -115 31 -338 41 -456 18z m-718
-630 c55 -20 77 -40 100 -90 54 -117 -27 -245 -155 -245 -98 0 -176 80 -176
179 0 66 66 145 134 161 46 12 50 11 97 -5z m1993 -489 c75 -57 94 -158 42
-236 -30 -45 -90 -80 -141 -80 -38 0 -104 31 -132 61 -77 85 -46 225 62 275
47 22 127 13 169 -20z m-3804 -631 c116 -60 118 -235 4 -301 -133 -78 -294 46
-254 194 13 50 67 108 113 121 40 11 100 5 137 -14z"/>
<path d="M4316 1865 c-293 -75 -488 -383 -417 -660 24 -91 132 -317 215 -449
31 -48 56 -91 56 -95 0 -3 -25 -17 -55 -30 -62 -26 -134 -85 -164 -134 -91
-148 36 -317 289 -384 92 -25 330 -25 420 0 153 42 283 131 310 213 19 55 8
136 -23 183 -33 49 -105 104 -167 128 -25 9 -46 17 -48 19 -1 1 22 41 53 90
84 133 200 372 220 454 65 267 -99 557 -368 650 -82 28 -239 36 -321 15z m329
-145 c186 -89 292 -294 249 -481 -25 -108 -153 -353 -302 -573 -70 -105 -131
-191 -137 -193 -5 -1 -47 50 -91 115 -231 333 -364 600 -364 731 0 57 23 147
51 203 28 55 113 143 169 176 86 51 136 63 250 59 95 -3 111 -6 175 -37z
m-312 -1290 c118 -164 125 -163 252 19 44 64 77 100 88 101 35 0 125 -51 162
-91 31 -35 36 -46 31 -72 -9 -45 -51 -85 -129 -122 -91 -45 -183 -59 -332 -52
-128 6 -186 20 -266 64 -98 53 -125 120 -74 182 29 34 141 93 168 89 10 -2 55
-55 100 -118z"/>
<path d="M4387 1506 c-65 -18 -116 -61 -150 -127 -25 -47 -28 -62 -24 -119 5
-73 20 -110 68 -158 46 -47 84 -64 154 -70 116 -9 218 62 251 176 52 179 -118
348 -299 298z m124 -121 c95 -50 88 -189 -12 -229 -84 -34 -169 22 -169 111 0
102 93 163 181 118z"/>
</g>
</svg>
