<?xml version="1.0" standalone="no"?>
<!DOCTYPE svg PUBLIC "-//W3C//DTD SVG 20010904//EN"
 "http://www.w3.org/TR/2001/REC-SVG-20010904/DTD/svg10.dtd">
<svg version="1.0" xmlns="http://www.w3.org/2000/svg"
 width="512.000000pt" height="512.000000pt" viewBox="0 0 512.000000 512.000000"
 preserveAspectRatio="xMidYMid meet">

<g transform="translate(0.000000,512.000000) scale(0.100000,-0.100000)"
fill="#000000" stroke="none">
<path d="M2103 5096 l-28 -24 -3 -151 -3 -151 -199 0 c-109 0 -206 -3 -215 -6
-38 -15 -45 -55 -45 -259 l0 -195 -148 0 c-212 0 -192 44 -192 -423 l0 -376
-381 -3 -381 -3 -24 -28 -24 -28 0 -1640 0 -1639 -87 0 c-91 -1 -110 -7 -131
-47 -19 -35 -14 -63 17 -94 l29 -29 2272 0 2272 0 29 29 c31 31 36 59 17 94
-21 40 -40 46 -130 47 l-88 0 0 2265 c0 2421 2 2311 -45 2329 -9 3 -394 6
-854 6 l-838 0 -19 -21 c-17 -19 -20 -43 -24 -228 l-5 -206 -85 0 -85 0 -3
206 c-3 270 19 248 -252 251 l-205 3 -3 140 c-2 148 -9 176 -49 194 -36 17
-59 13 -90 -13z m427 -641 l0 -145 -372 2 -373 3 -3 143 -3 142 376 0 375 0 0
-145z m1960 -2070 l0 -2215 -317 2 -318 3 -2 1175 c-2 860 -6 1181 -14 1197
-15 28 -61 47 -91 38 -38 -12 -58 -36 -64 -77 l-7 -38 -82 0 -82 0 -7 38 c-17
110 -155 104 -168 -8 l-3 -25 -142 -3 -143 -3 0 1066 0 1065 720 0 720 0 0
-2215z m-1612 923 l-3 -833 -315 0 -315 0 -3 143 -3 142 138 0 c151 0 179 8
201 54 16 33 9 70 -19 94 -16 14 -47 18 -167 22 l-147 5 -3 143 -3 142 138 0
c151 0 179 8 201 54 16 33 9 70 -19 94 -16 14 -47 18 -167 22 l-147 5 -3 25
c-4 39 -22 67 -49 79 -16 7 -143 11 -388 11 l-365 0 0 315 0 315 720 0 720 0
-2 -832z m-808 -1553 l0 -1585 -199 0 -200 0 -3 204 c-3 201 -3 205 -27 230
l-24 26 -263 0 c-243 0 -263 -1 -285 -19 -24 -19 -24 -23 -29 -228 l-5 -208
-202 -3 -203 -2 0 1578 c0 868 3 1582 7 1585 3 4 327 7 720 7 l713 0 0 -1585z
m1610 -520 l0 -1065 -717 2 -718 3 -3 1063 -2 1062 720 0 720 0 0 -1065z
m-2182 -917 l-3 -143 -26 -3 -27 -3 -3 90 c-4 78 -7 93 -28 115 -30 32 -78 34
-112 7 -21 -17 -25 -30 -29 -113 -5 -93 -5 -93 -32 -96 l-28 -3 0 145 0 146
145 0 146 0 -3 -142z"/>
<path d="M3365 4285 c-23 -22 -25 -32 -25 -115 0 -83 2 -93 25 -115 41 -42
105 -31 133 22 17 31 15 158 -3 192 -25 49 -90 57 -130 16z"/>
<path d="M3712 4290 c-43 -40 -44 -190 -2 -235 32 -34 82 -34 115 0 23 22 25
32 25 118 0 85 -2 96 -23 115 -30 28 -86 29 -115 2z"/>
<path d="M4055 4285 c-23 -22 -25 -32 -25 -115 0 -83 2 -93 25 -115 41 -42
105 -31 133 22 17 31 15 158 -3 192 -25 49 -90 57 -130 16z"/>
<path d="M3385 3728 c-38 -22 -44 -41 -44 -133 0 -100 8 -119 57 -136 23 -8
38 -7 59 3 43 20 54 52 51 145 -2 67 -7 86 -23 102 -25 26 -74 35 -100 19z"/>
<path d="M3730 3727 c-13 -7 -30 -24 -37 -37 -16 -32 -16 -158 0 -190 19 -37
61 -54 99 -41 49 17 57 37 58 133 0 102 -4 114 -41 133 -34 18 -47 18 -79 2z"/>
<path d="M4075 3728 c-38 -22 -44 -41 -45 -134 0 -84 2 -92 25 -114 34 -32 87
-32 118 -2 19 19 23 36 25 111 4 80 2 90 -20 114 -27 31 -74 43 -103 25z"/>
<path d="M3365 3135 c-23 -22 -25 -32 -25 -115 0 -83 2 -93 25 -115 16 -17 35
-25 57 -25 64 1 88 39 88 140 0 101 -24 139 -88 140 -22 0 -41 -8 -57 -25z"/>
<path d="M3718 3146 c-26 -19 -38 -60 -38 -126 0 -98 26 -139 88 -140 22 0 41
8 57 25 23 22 25 32 25 115 0 83 -2 93 -25 115 -27 28 -79 33 -107 11z"/>
<path d="M4055 3135 c-23 -22 -25 -32 -25 -115 0 -83 2 -93 25 -115 41 -42
105 -31 133 22 17 31 15 158 -3 192 -25 49 -90 57 -130 16z"/>
<path d="M4075 2578 c-11 -6 -25 -19 -32 -27 -17 -21 -17 -191 0 -212 35 -46
101 -47 137 -2 16 21 20 41 20 109 0 72 -3 86 -22 108 -27 30 -74 41 -103 24z"/>
<path d="M4055 1985 c-23 -22 -25 -32 -25 -115 0 -83 2 -93 25 -115 40 -41
105 -33 130 16 18 34 20 161 3 192 -28 53 -92 64 -133 22z"/>
<path d="M4090 1433 c-8 -3 -25 -15 -37 -26 -21 -18 -23 -30 -23 -111 1 -94 7
-113 47 -134 35 -19 63 -14 95 18 30 30 30 32 26 120 -2 73 -7 93 -23 109 -22
22 -62 33 -85 24z"/>
<path d="M4055 835 c-23 -22 -25 -32 -25 -115 0 -83 2 -93 25 -115 40 -41 105
-33 130 16 18 34 20 161 3 192 -28 53 -92 64 -133 22z"/>
<path d="M1752 3827 c-25 -26 -29 -82 -8 -109 26 -35 63 -38 419 -38 380 0
391 2 415 54 17 33 9 69 -20 96 -21 19 -34 20 -403 20 l-382 0 -21 -23z"/>
<path d="M962 2923 c-38 -15 -59 -172 -30 -226 28 -53 92 -64 133 -22 23 22
25 32 25 115 0 83 -2 93 -25 115 -23 24 -69 32 -103 18z"/>
<path d="M1295 2905 c-23 -22 -25 -32 -25 -115 0 -83 2 -93 25 -115 16 -17 35
-25 57 -25 62 1 88 42 88 140 0 98 -26 139 -88 140 -22 0 -41 -8 -57 -25z"/>
<path d="M1649 2917 c-29 -22 -39 -55 -39 -127 0 -101 24 -139 88 -140 22 0
41 8 57 25 23 22 25 32 25 115 0 83 -2 93 -25 115 -27 27 -79 33 -106 12z"/>
<path d="M974 2350 c-41 -16 -54 -49 -54 -136 0 -66 4 -86 20 -107 36 -45 102
-44 137 2 17 21 17 191 0 212 -26 34 -64 45 -103 29z"/>
<path d="M1315 2348 c-38 -22 -44 -41 -45 -134 0 -77 3 -93 20 -112 27 -29 63
-37 96 -20 44 20 55 52 52 145 -2 67 -7 86 -23 102 -25 26 -74 35 -100 19z"/>
<path d="M1660 2347 c-36 -18 -50 -54 -50 -132 0 -80 14 -114 54 -133 33 -17
69 -9 96 20 17 19 20 35 20 112 -1 94 -7 113 -47 134 -27 15 -42 15 -73 -1z"/>
<path d="M959 1767 c-29 -22 -39 -55 -39 -127 0 -74 16 -123 45 -134 35 -13
76 -6 100 19 23 22 25 32 25 115 0 83 -2 93 -25 115 -27 27 -79 33 -106 12z"/>
<path d="M1295 1755 c-23 -22 -25 -32 -25 -118 0 -85 2 -96 23 -115 30 -28 86
-29 115 -2 43 40 44 190 2 235 -32 34 -82 34 -115 0z"/>
<path d="M1649 1767 c-29 -22 -39 -55 -39 -127 0 -74 16 -123 45 -134 35 -13
76 -6 100 19 23 22 25 32 25 115 0 83 -2 93 -25 115 -27 27 -79 33 -106 12z"/>
<path d="M970 1197 c-37 -19 -50 -54 -50 -140 0 -74 2 -80 29 -108 31 -31 59
-36 94 -17 40 21 46 40 47 134 0 81 -2 93 -22 112 -30 27 -67 35 -98 19z"/>
<path d="M1321 1199 c-43 -17 -50 -38 -51 -136 0 -80 3 -96 20 -113 42 -42
111 -32 137 20 17 34 16 154 -1 189 -8 15 -26 32 -41 39 -30 14 -32 14 -64 1z"/>
<path d="M1660 1197 c-13 -7 -30 -24 -37 -37 -16 -32 -16 -158 0 -190 28 -55
94 -64 137 -18 17 19 20 35 20 113 0 82 -2 94 -22 113 -30 27 -67 35 -98 19z"/>
<path d="M2580 2117 c-51 -26 -50 -5 -50 -880 0 -868 0 -863 45 -881 36 -13
82 -6 103 17 l22 23 0 840 c-1 887 1 857 -47 882 -27 15 -42 15 -73 -1z"/>
<path d="M2931 2119 c-52 -21 -50 16 -51 -880 0 -831 0 -836 21 -863 39 -50
128 -28 144 36 3 13 4 393 3 845 -3 807 -3 823 -23 842 -25 25 -63 33 -94 20z"/>
<path d="M3270 2117 c-51 -26 -50 -5 -50 -880 0 -868 0 -863 45 -881 36 -13
82 -6 103 17 l22 23 0 840 c-1 887 1 857 -47 882 -27 15 -42 15 -73 -1z"/>
</g>
</svg>
