<?xml version="1.0" standalone="no"?>
<!DOCTYPE svg PUBLIC "-//W3C//DTD SVG 20010904//EN"
 "http://www.w3.org/TR/2001/REC-SVG-20010904/DTD/svg10.dtd">
<svg version="1.0" xmlns="http://www.w3.org/2000/svg"
 width="512.000000pt" height="512.000000pt" viewBox="0 0 512.000000 512.000000"
 preserveAspectRatio="xMidYMid meet">

<g transform="translate(0.000000,512.000000) scale(0.100000,-0.100000)"
fill="#000000" stroke="none">
<path d="M3714 5108 c-35 -16 -44 -52 -44 -167 0 -104 1 -109 26 -135 29 -28
77 -35 105 -13 31 24 39 56 39 162 0 104 -1 107 -29 136 -30 30 -60 35 -97 17z"/>
<path d="M2873 4760 c-28 -11 -43 -40 -43 -81 0 -28 13 -46 83 -116 69 -69 89
-83 115 -83 48 0 86 38 85 86 -1 34 -10 47 -86 121 -86 85 -104 93 -154 73z"/>
<path d="M4484 4688 c-99 -98 -110 -127 -69 -176 21 -25 35 -32 63 -32 31 0
45 10 119 83 74 75 83 87 83 121 0 48 -36 86 -81 86 -26 0 -46 -14 -115 -82z"/>
<path d="M3595 4504 c-238 -58 -437 -254 -502 -495 -23 -86 -23 -252 0 -338
133 -498 750 -681 1120 -331 151 141 219 296 221 495 1 204 -68 361 -220 505
-128 120 -284 181 -463 179 -53 0 -123 -7 -156 -15z m296 -172 c191 -53 342
-225 369 -419 50 -364 -289 -662 -641 -565 -189 52 -336 218 -369 414 -42 244
122 500 364 569 81 23 195 24 277 1z"/>
<path d="M2545 3923 c-65 -16 -88 -98 -40 -143 22 -20 38 -24 113 -28 119 -6
169 9 188 54 12 29 12 39 0 68 -11 27 -23 37 -53 45 -38 11 -170 13 -208 4z"/>
<path d="M4752 3919 c-22 -7 -38 -21 -49 -44 -16 -33 -16 -37 0 -70 21 -45 71
-59 189 -53 75 4 91 8 113 28 35 32 34 88 0 120 -23 22 -36 25 -123 27 -53 1
-112 -2 -130 -8z"/>
<path d="M1100 3834 c-52 -10 -156 -47 -190 -66 -113 -67 -209 -170 -253 -268
-11 -25 -20 -46 -21 -47 -1 -2 -27 7 -57 18 -44 17 -70 20 -139 17 -103 -5
-164 -33 -229 -103 -67 -73 -86 -124 -86 -230 0 -103 19 -153 84 -227 l37 -41
-57 -29 c-67 -33 -132 -100 -162 -166 -17 -36 -22 -66 -22 -132 0 -153 -15
-134 547 -696 l490 -492 -213 -4 c-190 -4 -221 -8 -271 -27 -76 -29 -149 -99
-185 -176 -39 -84 -39 -195 -1 -276 36 -79 89 -133 166 -171 60 -30 74 -32
188 -36 l122 -4 4 -242 c4 -265 7 -279 68 -350 59 -67 99 -81 230 -81 128 0
166 13 228 76 64 66 67 79 70 352 l3 247 1278 0 1277 0 -35 -72 c-35 -69 -36
-76 -36 -182 0 -104 2 -115 32 -179 39 -83 117 -163 195 -201 258 -126 563 32
610 316 16 100 0 174 -70 311 -2 4 39 7 90 7 116 0 180 18 236 66 73 62 86 98
90 256 3 107 0 148 -12 185 -22 65 -67 118 -130 151 l-51 27 -318 2 c-175 1
-321 3 -323 6 -3 2 1 17 7 33 6 16 11 57 11 92 1 120 -18 144 -389 514 -293
292 -336 331 -394 358 -92 42 -171 55 -256 40 -130 -22 -155 -40 -428 -310
-137 -136 -264 -255 -282 -264 -39 -20 -93 -21 -136 -2 -18 8 -224 206 -472
455 l-440 442 30 21 c59 42 142 135 178 199 217 388 -51 867 -493 884 -52 2
-106 1 -120 -1z m182 -175 c244 -52 392 -303 319 -538 -36 -116 -111 -205
-217 -257 -93 -45 -95 -44 -366 220 -156 151 -238 238 -238 251 0 11 15 52 33
90 86 179 277 274 469 234z m-777 -340 c33 -9 92 -62 350 -318 l310 -308 68
-11 c56 -9 79 -19 123 -52 62 -47 75 -68 51 -82 -26 -14 -48 -65 -41 -93 8
-33 49 -65 83 -65 15 0 42 11 61 24 l35 24 172 -167 172 -167 -6 -40 c-4 -33
-1 -45 20 -70 22 -25 32 -29 70 -27 42 1 48 -2 101 -56 l57 -58 -170 -128
-171 -127 -733 728 c-402 400 -740 741 -749 758 -47 85 0 196 99 231 47 17 49
17 98 4z m-110 -600 c34 -9 145 -116 798 -767 l757 -757 1480 -5 c1402 -5
1480 -6 1497 -23 15 -14 19 -39 21 -136 3 -114 3 -119 -21 -147 l-25 -29
-1544 -3 -1543 -2 -817 817 c-725 726 -817 822 -823 856 -11 57 3 104 42 148
49 54 102 69 178 48z m3043 -499 c35 -16 119 -93 340 -313 162 -161 307 -310
323 -331 50 -68 35 -157 -32 -192 -46 -23 -101 -18 -145 15 -21 16 -154 145
-294 286 -140 141 -265 261 -277 266 -37 14 -72 -6 -158 -92 l-80 -79 -90 90
-90 90 110 111 c61 61 123 120 139 132 68 49 166 55 254 17z m-588 -705 l-145
-145 -345 0 -346 0 -52 53 -52 52 172 129 171 129 26 -17 c71 -46 116 -59 201
-60 77 -1 92 2 150 31 40 20 88 55 125 93 l60 60 90 -90 90 -90 -145 -145z
m665 45 l190 -190 -380 0 -380 0 190 190 c104 105 190 190 190 190 0 0 86 -85
190 -190z m-2120 -540 l170 -170 -445 0 c-275 0 -459 4 -482 10 -52 15 -94 53
-114 105 -20 55 -14 103 20 155 45 68 55 70 386 70 l295 0 170 -170z m-115
-566 l0 -226 -29 -29 c-27 -27 -35 -29 -100 -29 -59 0 -74 4 -98 24 l-28 24
-3 231 -3 231 130 0 131 0 0 -226z m3185 203 c41 -21 93 -74 115 -117 78 -154
-26 -346 -199 -367 -150 -17 -281 100 -281 251 1 106 51 187 145 233 42 20 61
23 120 20 39 -2 84 -11 100 -20z"/>
<path d="M4295 485 c-41 -40 -33 -105 16 -130 39 -21 64 -19 93 8 40 34 43 77
11 115 -34 41 -84 44 -120 7z"/>
<path d="M2915 3119 c-46 -44 -85 -91 -87 -104 -6 -31 15 -81 41 -94 47 -26
71 -14 158 72 74 75 83 87 83 121 0 48 -36 86 -81 86 -26 0 -46 -14 -114 -81z"/>
<path d="M4425 3177 c-21 -17 -27 -32 -27 -62 0 -36 7 -46 85 -122 70 -69 90
-83 116 -83 45 0 81 38 81 86 0 34 -9 46 -83 121 -93 93 -123 103 -172 60z"/>
<path d="M3695 2874 c-23 -25 -25 -34 -25 -135 0 -118 9 -151 47 -168 39 -18
63 -13 94 18 28 29 29 32 29 136 0 137 -18 174 -88 175 -23 0 -40 -8 -57 -26z"/>
</g>
</svg>
