<?xml version="1.0" standalone="no"?>
<!DOCTYPE svg PUBLIC "-//W3C//DTD SVG 20010904//EN"
 "http://www.w3.org/TR/2001/REC-SVG-20010904/DTD/svg10.dtd">
<svg version="1.0" xmlns="http://www.w3.org/2000/svg"
 width="512.000000pt" height="512.000000pt" viewBox="0 0 512.000000 512.000000"
 preserveAspectRatio="xMidYMid meet">

<g transform="translate(0.000000,512.000000) scale(0.100000,-0.100000)"
fill="#000000" stroke="none">
<path d="M4242 5100 c-30 -28 -35 -54 -30 -165 3 -92 5 -98 31 -121 34 -29 56
-30 91 -3 26 20 26 22 26 144 0 122 0 124 -26 144 -34 26 -64 27 -92 1z"/>
<path d="M3706 4877 c-47 -47 -37 -73 63 -170 51 -51 97 -87 108 -87 37 0 73
38 73 77 0 31 -10 46 -77 114 -92 93 -126 107 -167 66z"/>
<path d="M4719 4824 c-91 -88 -106 -114 -89 -155 13 -31 59 -54 88 -45 10 4
56 45 102 91 77 79 82 87 76 117 -8 41 -23 56 -64 64 -29 6 -38 1 -113 -72z"/>
<path d="M4153 4681 c-140 -52 -238 -166 -269 -312 -57 -275 187 -533 464
-490 137 21 256 110 319 239 26 52 28 67 28 167 0 102 -2 114 -31 175 -46 95
-102 153 -191 197 -70 34 -84 38 -172 40 -75 2 -108 -2 -148 -16z m242 -150
c100 -45 155 -131 155 -240 -1 -153 -111 -265 -260 -264 -77 0 -122 17 -178
68 -59 53 -86 115 -86 195 2 149 114 260 263 260 42 0 81 -7 106 -19z"/>
<path d="M1660 4409 c-745 -62 -1387 -593 -1590 -1315 -49 -174 -65 -299 -64
-499 1 -210 14 -302 45 -327 28 -23 81 -23 110 1 20 16 23 26 21 77 -4 83 21
157 71 211 62 67 107 87 197 88 65 0 82 -4 129 -30 65 -36 116 -100 137 -172
24 -81 80 -108 129 -59 21 21 24 33 23 97 -1 86 17 138 65 187 135 141 376
109 446 -60 36 -86 44 -99 73 -114 62 -32 98 -2 98 84 0 75 13 120 53 178 32
47 82 92 92 83 8 -8 154 -903 148 -911 -2 -5 -409 -8 -903 -8 l-899 0 -20 -26
c-26 -34 -26 -54 0 -88 l20 -26 917 -2 917 -3 37 -229 c21 -126 36 -232 33
-234 -3 -3 -13 2 -22 10 -35 30 -220 138 -303 177 -184 86 -341 121 -546 121
-157 0 -283 -20 -424 -66 -207 -69 -399 -190 -545 -346 -91 -97 -113 -136 -99
-176 12 -34 56 -56 89 -45 13 4 50 39 82 78 149 177 357 306 603 372 118 31
346 43 468 23 229 -37 427 -138 807 -416 388 -284 541 -370 760 -430 113 -31
295 -42 416 -25 162 24 414 98 444 131 23 26 23 74 0 100 -24 27 -65 26 -156
-6 -289 -99 -520 -109 -739 -32 -158 56 -281 127 -520 300 l-136 98 -47 287
c-26 159 -47 294 -47 301 0 9 312 12 1525 12 l1524 0 21 22 c26 28 26 68 0 96
l-21 22 -1534 0 c-945 0 -1536 4 -1540 9 -5 10 -155 904 -155 929 0 32 91 -1
151 -55 42 -38 71 -86 83 -138 13 -53 33 -75 70 -75 19 0 44 9 57 19 21 17 24
26 21 82 -7 179 98 289 277 289 76 0 149 -29 193 -76 29 -32 67 -108 68 -137
0 -26 45 -67 73 -67 13 0 36 9 51 21 24 19 26 26 26 99 0 66 4 86 28 131 64
124 240 178 371 113 62 -31 104 -84 126 -157 19 -65 40 -87 81 -87 38 0 74 38
74 79 0 35 -43 208 -73 296 -233 677 -844 1151 -1567 1215 -127 11 -161 11
-300 -1z m-57 -208 c119 -132 268 -534 386 -1045 23 -97 41 -178 41 -181 0 -3
-12 1 -27 9 -78 40 -211 49 -307 22 -30 -9 -85 -37 -122 -62 -36 -25 -67 -44
-69 -42 -1 2 -10 77 -19 168 -47 486 -40 894 21 1085 31 100 43 105 96 46z
m739 -21 c357 -119 693 -386 888 -705 44 -71 131 -247 126 -252 -2 -2 -29 3
-62 12 -141 37 -287 -1 -395 -102 -34 -31 -50 -41 -53 -32 -3 8 -24 70 -46
139 -133 402 -363 753 -635 966 l-40 32 65 -15 c36 -8 104 -27 152 -43z m-417
-5 c114 -56 202 -123 301 -228 138 -146 257 -331 351 -546 42 -96 116 -301
109 -301 -2 0 -22 7 -45 15 -141 49 -306 15 -417 -87 -42 -39 -43 -39 -48 -16
-114 519 -222 863 -346 1107 l-58 113 32 -6 c17 -3 72 -26 121 -51z m-591 -95
c-25 -145 -35 -408 -24 -637 9 -190 30 -443 46 -550 l6 -43 -58 27 c-45 21
-79 28 -145 31 -110 5 -176 -13 -265 -74 l-67 -46 7 199 c3 109 9 225 12 259
6 55 4 63 -17 83 -28 26 -69 27 -98 4 -32 -26 -41 -96 -48 -360 -3 -128 -7
-233 -8 -233 -1 0 -29 12 -61 27 -52 25 -71 28 -159 28 -92 0 -106 -3 -167
-32 -38 -18 -84 -44 -104 -59 l-35 -27 6 54 c50 440 208 776 501 1061 106 104
297 248 328 248 3 0 -13 -28 -35 -62 -48 -75 -120 -221 -144 -297 -17 -52 -17
-54 2 -80 17 -21 28 -26 64 -26 50 0 41 -12 123 167 79 173 175 300 290 385
32 24 60 42 62 40 2 -1 -4 -41 -12 -87z"/>
<path d="M3480 4340 c-25 -25 -26 -71 -1 -101 18 -23 25 -24 140 -24 110 0
122 2 142 22 29 29 28 81 -2 105 -17 15 -42 18 -140 18 -106 0 -121 -2 -139
-20z"/>
<path d="M4811 4334 c-28 -36 -26 -60 8 -95 29 -28 32 -29 131 -29 69 0 110 5
129 15 46 23 54 66 20 109 -20 26 -22 26 -144 26 -122 0 -124 0 -144 -26z"/>
<path d="M3762 3866 c-91 -93 -100 -119 -57 -161 42 -43 68 -34 161 57 75 73
84 85 84 118 0 46 -25 70 -72 70 -30 0 -45 -10 -116 -84z"/>
<path d="M4641 3924 c-12 -15 -21 -36 -21 -47 0 -11 36 -57 87 -108 97 -99
123 -109 168 -64 44 43 34 69 -58 162 -74 73 -87 83 -119 83 -28 0 -42 -7 -57
-26z"/>
<path d="M4234 3759 c-16 -18 -19 -37 -19 -141 0 -114 1 -121 24 -139 30 -25
76 -24 101 1 18 18 20 33 20 138 0 140 -9 162 -69 162 -26 0 -44 -7 -57 -21z"/>
<path d="M3286 1541 c-25 -27 -24 -78 3 -104 l22 -22 673 0 c649 0 675 1 695
19 25 23 28 72 5 104 l-15 22 -683 0 c-658 0 -684 -1 -700 -19z"/>
<path d="M2858 1230 c-24 -25 -29 -36 -24 -58 4 -15 16 -35 28 -44 18 -16 50
-18 337 -18 l318 0 21 23 c29 31 28 72 -3 102 l-24 25 -311 0 -312 0 -30 -30z"/>
<path d="M4280 1034 c-153 -22 -227 -40 -247 -61 -31 -30 -30 -73 2 -103 l25
-24 113 20 c305 52 562 1 769 -154 36 -28 75 -53 86 -56 40 -13 92 32 92 79 0
55 -207 191 -381 251 -125 42 -339 65 -459 48z"/>
<path d="M1590 990 c-30 -30 -27 -83 6 -109 15 -12 34 -21 44 -21 10 0 29 9
44 21 52 41 23 129 -44 129 -17 0 -39 -9 -50 -20z"/>
<path d="M296 844 c-59 -58 -4 -150 73 -123 73 26 53 139 -25 139 -18 0 -40
-7 -48 -16z"/>
<path d="M4487 563 c-24 -6 -50 -59 -41 -86 18 -62 86 -78 123 -31 28 35 26
69 -4 99 -23 24 -40 28 -78 18z"/>
<path d="M1327 422 c-23 -25 -22 -85 1 -105 10 -10 35 -17 55 -17 41 0 67 27
67 70 0 14 -7 36 -16 48 -20 28 -83 31 -107 4z"/>
<path d="M3582 133 c-49 -42 -19 -133 43 -133 33 0 75 42 75 73 0 62 -73 98
-118 60z"/>
</g>
</svg>
